# Made in Blockbench 4.9.4
mtllib closetl.mtl

o cuboid
v 1.3125 4.75 0.8125
v 1.3125 4.75 -0.6875
v 1.3125 0 0.8125
v 1.3125 0 -0.8125
v -1.3125 4.75 0.8125
v -1.3125 4.75 -0.6875
v -1.3125 0 0.8125
v -1.3125 0 -0.75
v 1.125 4.75 -0.8125
v 1.125 0 -0.8125
v 1.125 0 0.8125
v 1.125 4.75 0.8125
v -1.09375 4.75 -0.8125
v -1.09375 0 -0.8125
v -1.09375 0 0.8125
v -1.09375 4.75 0.8125
v -1.09375 4.5 -0.8125
v 1.125 4.5 -0.8125
v 1.3125 4.625 -0.75
v 1.3125 4.625 0.8125
v 1.125 4.75 0.8125
v -1.09375 4.75 0.8125
v -1.3125 4.625 0.8125
v -1.3125 4.625 -0.75
v -1.09375 0.375 -0.8125
v 1.125 0.375 -0.8125
v 1.3125 0.5 -0.8125
v 1.3125 0.5 0.8125
v 1.125 0.25 0.8125
v -1.09375 0.25 0.8125
v -1.3125 0.5 0.8125
v -1.3125 0.5 -0.75
v 0.015625 4.75 0.8125
v 0.015625 4.5 -0.8125
v 0.015625 4.75 -1
v 0.015625 4.75 0.8125
v 0.015625 0.25 0.8125
v 0.015625 0 0.8125
v 0.015625 0 -0.8125
v 0.015625 0.375 -0.8125
v 0.015625 0.25 -0.6875
v 1.125 0.25 -0.6875
v 1.125 4.625 -0.6875
v 0.015625 4.625 -0.6875
v -1.09375 4.625 -0.6875
v -1.09375 0.25 -0.6875
vt 0 0.69921875
vt 0 0.69140625
vt 0.1015625 0.69140625
vt 0.1015625 0.69921875
vt 0.10546875 0.69921875
vt 0.10546875 0.69140625
vt 0.20703125 0.69140625
vt 0.20703125 0.69921875
vt 0.625 0.4765625
vt 0.61328125 0.4765625
vt 0.61328125 0.375
vt 0.625 0.375
vt 0.69921875 0.73828125
vt 0.6875 0.73828125
vt 0.6875 0.63671875
vt 0.69921875 0.63671875
vt 0.01953125 0.8984375
vt 0.03125 0.90625
vt 0.01953125 0.90625
vt 0 1
vt 0 0.9921875
vt 0.01171875 0.984375
vt 0.01171875 1
vt 0.150390625 1
vt 0.0810546875 1
vt 0.0810546875 0.984375
vt 0.150390625 0.984375
vt 0.548828125 0.63671875
vt 0.6181640625 0.63671875
vt 0.6181640625 0.73828125
vt 0.548828125 0.73828125
vt 0 1
vt 0.0703125 1
vt 0.0703125 1
vt 0 1
vt 0.474609375 0.375
vt 0.5439453125 0.375
vt 0.5439453125 0.4765625
vt 0.474609375 0.4765625
vt 0.150390625 1
vt 0.150390625 0.984375
vt 0.1640625 0.9921875
vt 0.1640625 1
vt 0.53515625 0.63671875
vt 0.548828125 0.63671875
vt 0.548828125 0.73828125
vt 0.53515625 0.73828125
vt 0.0732421875 0.91796875
vt 0.0595703125 0.91796875
vt 0.0732421875 0.91015625
vt 0.4609375 0.375
vt 0.474609375 0.375
vt 0.474609375 0.4765625
vt 0.4609375 0.4765625
vt 0 0.9921875
vt 0 0.734375
vt 0.01171875 0.7265625
vt 0.01171875 0.984375
vt 0 0.69140625
vt 0 0.43359375
vt 0.1015625 0.43359375
vt 0.1015625 0.69140625
vt 0.3203125 1
vt 0.3203125 0.71875
vt 0.33203125 0.734375
vt 0.33203125 0.9921875
vt 0.181640625 0.71875
vt 0.2509765625 0.71875
vt 0.2509765625 1
vt 0.181640625 1
vt 0.16796875 0.9921875
vt 0.16796875 0.734375
vt 0.181640625 0.71875
vt 0.181640625 1
vt 0.10546875 0.69140625
vt 0.10546875 0.43359375
vt 0.20703125 0.43359375
vt 0.20703125 0.69140625
vt 0.150390625 0.984375
vt 0.150390625 0.7265625
vt 0.1640625 0.734375
vt 0.1640625 0.9921875
vt 0.150390625 0.7265625
vt 0.0810546875 0.7265625
vt 0.0810546875 0.703125
vt 0.150390625 0.703125
vt 0.01171875 0.703125
vt 0.01171875 0.7265625
vt 0 0.734375
vt 0 0.703125
vt 0.1015625 0.40234375
vt 0.1015625 0.43359375
vt 0 0.43359375
vt 0 0.40234375
vt 0.33203125 0.703125
vt 0.33203125 0.734375
vt 0.3203125 0.71875
vt 0.3203125 0.703125
vt 0.181640625 0.703125
vt 0.2509765625 0.703125
vt 0.2509765625 0.71875
vt 0.181640625 0.71875
vt 0.181640625 0.703125
vt 0.181640625 0.71875
vt 0.16796875 0.734375
vt 0.16796875 0.703125
vt 0.20703125 0.40234375
vt 0.20703125 0.43359375
vt 0.10546875 0.43359375
vt 0.10546875 0.40234375
vt 0.1640625 0.703125
vt 0.1640625 0.734375
vt 0.150390625 0.7265625
vt 0.150390625 0.703125
vt 0.5361328125 0.5149546875
vt 0.5361328125 0.50390625
vt 0.60546875 0.50390625
vt 0.60546875 0.5149546875
vt 0.3828125 0.703125
vt 0.2890625 0.6953125
vt 0.2890625 0.421875
vt 0.3828125 0.421875
vt 0.3359375 0.7265625
vt 0.34375 0.71875
vt 0.34375 0.9921875
vt 0.3359375 0.984375
vt 0.5361328125 0.62923125
vt 0.5361328125 0.53515625
vt 0.60546875 0.53515625
vt 0.60546875 0.62923125
vt 0.60546875 0.62923125
vt 0.60546875 0.53515625
vt 0.6748046875 0.53515625
vt 0.6748046875 0.62923125
vt 0.01171875 0.984375
vt 0.0810546875 0.984375
vt 0.0810546875 1
vt 0.01171875 1
vt 0.61328125 0.4765625
vt 0.5439453125 0.4765625
vt 0.5439453125 0.375
vt 0.61328125 0.375
vt 0.0703125 1
vt 0 1
vt 0 1
vt 0.0703125 1
vt 0.3203125 1
vt 0.2509765625 1
vt 0.2509765625 0.71875
vt 0.3203125 0.71875
vt 0.3203125 0.71875
vt 0.2509765625 0.71875
vt 0.2509765625 0.703125
vt 0.3203125 0.703125
vt 0.6875 0.73828125
vt 0.6181640625 0.73828125
vt 0.6181640625 0.63671875
vt 0.6875 0.63671875
vt 0.01171875 0.703125
vt 0.0810546875 0.703125
vt 0.0810546875 0.7265625
vt 0.01171875 0.7265625
vt 0.60546875 0.5149546875
vt 0.60546875 0.50390625
vt 0.6748046875 0.50390625
vt 0.6748046875 0.5149546875
vt 0.28125 0.41796875
vt 0.28125 0.32421875
vt 0.3505859375 0.32421875
vt 0.3505859375 0.41796875
vt 0.28125 0.4296875
vt 0.2890625 0.421875
vt 0.2890625 0.6953125
vt 0.28125 0.6875
vt 0.6748046875 0.51953125
vt 0.6748046875 0.5305796875
vt 0.60546875 0.5305796875
vt 0.60546875 0.51953125
vt 0.60546875 0.51953125
vt 0.60546875 0.5305796875
vt 0.5361328125 0.5305796875
vt 0.5361328125 0.51953125
vt 0.4375 1
vt 0.34375 0.9921875
vt 0.34375 0.71875
vt 0.4375 0.71875
vt 0.2119140625 0.41796875
vt 0.2119140625 0.32421875
vt 0.28125 0.32421875
vt 0.28125 0.41796875
vt 0.09375 0.96875
vt 0.10546875 0.9765625
vt 0.09375 0.9765625
vt 0.0927734375 0.91015625
vt 0.0927734375 0.91796875
vt 0.0791015625 0.91796875
vn 1 0 0
vn -1 0 0
vn 0 1 0
vn 0 -1 0
vn 0 0 -1
vn 0 0.44721359549995804 -0.8944271909999161
vn -0.1339919885188802 -0.594589449052531 -0.7927859320700412
vn 0 -1 0
vn 0 0 0
vn 0 1 0
vn -0.27472112789737807 0 -0.9615239476408232
vn 0 -1 0
vn 0 0 -1
vn 0 1 0
vn -0.010099335775904555 0.015149003663856834 -0.999834241814551
vn 1 0 0
vn 0 0 1
vn 0 0 1
vn 0 0 1
vn -1 0 0
vn -0.274721127897378 0 -0.9615239476408232
vn 0 0 -1
vn 0 0 -1
vn 1 0 0
vn 0 0 1
vn 0 0 1
vn 0 0 1
vn -1 0 0
vn -0.27472112789737807 0 -0.9615239476408232
vn 0 -0.7071067811865476 -0.7071067811865476
vn -1 0 0
vn -1 0 0
vn 0 -0.9965457582448797 0.08304547985373997
vn 0 -0.9965457582448797 0.08304547985373997
vn 0 -0.6 -0.8
vn 0 1 0
vn 0 0 0
vn 0 0 1
vn 0 0 1
vn 0 -1 0
vn 0 0 -1
vn 0 -0.7071067811865476 -0.7071067811865476
vn 0 -1 0
vn -1 0 0
vn 0 -0.7071067811865476 0.7071067811865476
vn 0 -0.7071067811865476 0.7071067811865476
vn -1 0 0
vn 0 -1 0
vn 0 0 -1
vn 0 0 -1
usemtl m_b7618a71-4041-6422-b75d-be3f7647f2c8
f 1/1/1 20/2/1 19/3/1 2/4/1
f 6/5/2 24/6/2 23/7/2 5/8/2
f 2/9/3 9/10/3 12/11/3 1/12/3
f 3/13/4 11/14/4 10/15/4 4/16/4
f 20/17/5 21/18/5 1/19/5
f 2/20/6 19/21/6 18/22/6 9/23/6
f 13/24/7 35/25/7 34/26/7 17/27/7
f 14/28/8 39/29/8 38/30/8 15/31/8
f 22/32/9 36/33/9 33/34/9 16/35/9
f 16/36/10 36/37/10 35/38/10 13/39/10
f 13/40/11 17/41/11 24/42/11 6/43/11
f 8/44/12 14/45/12 15/46/12 7/47/12
f 5/48/13 22/49/13 23/50/13
f 5/51/14 16/52/14 13/53/14 6/54/14
f 19/55/15 27/56/15 26/57/15 18/58/15
f 20/59/16 28/60/16 27/61/16 19/62/16
f 21/63/17 29/64/17 28/65/17 20/66/17
f 30/67/18 37/68/18 33/69/18 22/70/18
f 23/71/19 31/72/19 30/73/19 22/74/19
f 24/75/20 32/76/20 31/77/20 23/78/20
f 17/79/21 25/80/21 32/81/21 24/82/21
f 25/83/22 40/84/22 39/85/22 14/86/22
f 10/87/23 26/88/23 27/89/23 4/90/23
f 4/91/24 27/92/24 28/93/24 3/94/24
f 3/95/25 28/96/25 29/97/25 11/98/25
f 15/99/26 38/100/26 37/101/26 30/102/26
f 15/103/27 30/104/27 31/105/27 7/106/27
f 7/107/28 31/108/28 32/109/28 8/110/28
f 8/111/29 32/112/29 25/113/29 14/114/29
f 26/115/30 42/116/30 41/117/30 40/118/30
f 21/119/31 43/120/31 42/121/31 29/122/31
f 25/123/32 46/124/32 45/125/32 17/126/32
f 22/127/33 45/128/33 44/129/33 33/130/33
f 33/131/34 44/132/34 43/133/34 21/134/34
f 18/135/35 34/136/35 35/137/35 9/138/35
f 9/139/36 35/140/36 36/141/36 12/142/36
f 12/143/37 36/144/37 33/145/37 21/146/37
f 21/147/38 33/148/38 37/149/38 29/150/38
f 29/151/39 37/152/39 38/153/39 11/154/39
f 11/155/40 38/156/40 39/157/40 10/158/40
f 10/159/41 39/160/41 40/161/41 26/162/41
f 40/163/42 41/164/42 46/165/42 25/166/42
f 37/167/43 41/168/43 42/169/43 29/170/43
f 26/171/44 42/172/44 43/173/44 18/174/44
f 18/175/45 43/176/45 44/177/45 34/178/45
f 34/179/46 44/180/46 45/181/46 17/182/46
f 22/183/47 45/184/47 46/185/47 30/186/47
f 30/187/48 46/188/48 41/189/48 37/190/48
f 20/191/49 12/192/49 1/193/49
f 23/194/50 5/195/50 16/196/50
o cuboid
v -0.14165932972062145 4.5 -1.2370056437498411
v -0.20882178076397445 4.5 -1.3424295744764518
v -0.14165932972062145 0.375 -1.2370056437498411
v -0.20882178076397445 0.375 -1.3424295744764518
v -1.0904747062601179 4.5 -0.6325435843596643
v -1.157637157303471 4.5 -0.737967515086275
v -1.0904747062601179 0.375 -0.6325435843596643
v -1.157637157303471 0.375 -0.737967515086275
vt 0.21875 0.69921875
vt 0.2109375 0.69921875
vt 0.2109375 0.44140625
vt 0.21875 0.44140625
vt 0.23046875 0.44140625
vt 0.23046875 0.69921875
vt 0.22265625 0.69921875
vt 0.22265625 0.44140625
vt 0.01953125 0.96875
vt 0.08984375 0.96875
vt 0.08984375 0.9765625
vt 0.01953125 0.9765625
vt 0.08984375 0.95703125
vt 0.08984375 0.96484375
vt 0.01953125 0.96484375
vt 0.01953125 0.95703125
vt 0.45703125 0.45703125
vt 0.45703125 0.71484375
vt 0.38671875 0.71484375
vt 0.38671875 0.45703125
vt 0.51171875 1
vt 0.44140625 1
vt 0.44140625 0.7421875
vt 0.51171875 0.7421875
vn 0.8433914458128857 0 -0.5372996083468239
vn -0.8433914458128857 0 0.5372996083468239
vn 0 1 0
vn 0 -1 0
vn 0.5372996083468239 0 0.8433914458128857
vn -0.5372996083468239 0 -0.8433914458128857
usemtl m_b7618a71-4041-6422-b75d-be3f7647f2c8
f 48/197/51 47/198/51 49/199/51 50/200/51
f 53/201/52 51/202/52 52/203/52 54/204/52
f 51/205/53 47/206/53 48/207/53 52/208/53
f 50/209/54 49/210/54 53/211/54 54/212/54
f 49/213/55 47/214/55 51/215/55 53/216/55
f 52/217/56 48/218/56 50/219/56 54/220/56
o cuboid
v -0.33337645133221405 2.4375 -1.188973932548117
v -0.400538902375567 2.4375 -1.2943978632747277
v -0.33337645133221405 2.3125 -1.188973932548117
v -0.400538902375567 2.3125 -1.2943978632747277
v -0.5442243127854355 2.4375 -1.0546490304614111
v -0.5778055383071119 2.4375 -1.1073609958247164
v -0.5442243127854355 2.3125 -1.0546490304614111
v -0.5778055383071119 2.3125 -1.1073609958247164
vt 0.0546875 0.90625
vt 0.046875 0.90625
vt 0.046875 0.8984375
vt 0.0546875 0.8984375
vt 0.1015625 0.9453125
vt 0.1015625 0.953125
vt 0.09375 0.953125
vt 0.09375 0.9453125
vt 0.078125 0.921875
vt 0.09375 0.921875
vt 0.09375 0.9296875
vt 0.078125 0.9296875
vt 0.03515625 0.91015625
vt 0.03515625 0.91796875
vt 0.01953125 0.91796875
vt 0.01953125 0.91015625
vt 0.0546875 0.91796875
vt 0.0390625 0.91796875
vt 0.0390625 0.91015625
vt 0.0546875 0.91015625
vn 0.8433914458128857 0 -0.5372996083468239
vn -0.8433914458128857 0 0.5372996083468239
vn 0 1 0
vn 0 -1 0
vn -0.7258096568292202 0 -0.6878955894999254
usemtl m_b7618a71-4041-6422-b75d-be3f7647f2c8
f 56/221/57 55/222/57 57/223/57 58/224/57
f 61/225/58 59/226/58 60/227/58 62/228/58
f 59/229/59 55/230/59 56/231/59 60/232/59
f 58/233/60 57/234/60 61/235/60 62/236/60
f 60/237/61 56/238/61 58/239/61 62/240/61
o cuboid
v 1.125 4.5 -0.75
v 1.125 4.5 -0.875
v 1.125 0.375 -0.75
v 1.125 0.375 -0.875
v 0 4.5 -0.75
v 0 4.5 -0.875
v 0 0.375 -0.75
v 0 0.375 -0.875
vt 0.2421875 0.69921875
vt 0.234375 0.69921875
vt 0.234375 0.44140625
vt 0.2421875 0.44140625
vt 0.25390625 0.44140625
vt 0.25390625 0.69921875
vt 0.24609375 0.69921875
vt 0.24609375 0.44140625
vt 0.01953125 0.9453125
vt 0.08984375 0.9453125
vt 0.08984375 0.953125
vt 0.01953125 0.953125
vt 0.08984375 0.93359375
vt 0.08984375 0.94140625
vt 0.01953125 0.94140625
vt 0.01953125 0.93359375
vt 0.53125 0.48046875
vt 0.53125 0.73828125
vt 0.4609375 0.73828125
vt 0.4609375 0.48046875
vt 0.5859375 1
vt 0.515625 1
vt 0.515625 0.7421875
vt 0.5859375 0.7421875
vn 1 0 0
vn -1 0 0
vn 0 1 0
vn 0 -1 0
vn 0 0 1
vn 0 0 -1
usemtl m_b7618a71-4041-6422-b75d-be3f7647f2c8
f 64/241/62 63/242/62 65/243/62 66/244/62
f 69/245/63 67/246/63 68/247/63 70/248/63
f 67/249/64 63/250/64 64/251/64 68/252/64
f 66/253/65 65/254/65 69/255/65 70/256/65
f 65/257/66 63/258/66 67/259/66 69/260/66
f 68/261/67 64/262/67 66/263/67 70/264/67
o cuboid
v 0.4375 2.4375 -0.8125
v 0.4375 2.4375 -0.875
v 0.4375 2.3125 -0.8125
v 0.4375 2.3125 -0.875
v 0.1875 2.4375 -0.8125
v 0.1875 2.4375 -0.9375
v 0.1875 2.3125 -0.8125
v 0.1875 2.3125 -0.9375
vt 0.04296875 0.90625
vt 0.03515625 0.90625
vt 0.03515625 0.8984375
vt 0.04296875 0.8984375
vt 0.1015625 0.95703125
vt 0.1015625 0.96484375
vt 0.09375 0.96484375
vt 0.09375 0.95703125
vt 0.01953125 0.921875
vt 0.03515625 0.921875
vt 0.03515625 0.9296875
vt 0.01953125 0.9296875
vt 0.0546875 0.921875
vt 0.0546875 0.9296875
vt 0.0390625 0.9296875
vt 0.0390625 0.921875
vt 0.07421875 0.9296875
vt 0.05859375 0.9296875
vt 0.05859375 0.921875
vt 0.07421875 0.921875
vn 1 0 0
vn -1 0 0
vn 0 1 0
vn 0 -1 0
vn 0.24253562503633297 0 -0.9701425001453319
usemtl m_b7618a71-4041-6422-b75d-be3f7647f2c8
f 72/265/68 71/266/68 73/267/68 74/268/68
f 77/269/69 75/270/69 76/271/69 78/272/69
f 75/273/70 71/274/70 72/275/70 76/276/70
f 74/277/71 73/278/71 77/279/71 78/280/71
f 76/281/72 72/282/72 74/283/72 78/284/72