# Made in Blockbench 4.9.4
mtllib table.mtl

o cuboid
v 0.46153846153846145 0.75 0.9523809523809523
v 0.46153846153846145 0.75 -0.9523809523809523
v 0.46153846153846145 0 0.9523809523809523
v 0.46153846153846145 0 -0.9523809523809523
v -0.46153846153846145 0.75 0.9523809523809523
v -0.46153846153846145 0.75 -0.9523809523809523
v -0.46153846153846145 0 0.9523809523809523
v -0.46153846153846145 0 -0.9523809523809523
v -0.423076923076923 0.75 1
v -0.423076923076923 0.75 -1
v -0.423076923076923 0 -1
v -0.423076923076923 0 1
v 0.423076923076923 0.75 -1
v 0.423076923076923 0.75 1
v 0.423076923076923 0 1
v 0.423076923076923 0 -1
v 0.423076923076923 0.75 0.8571428571428571
v -0.423076923076923 0.75 0.8571428571428571
v -0.5 0.75 0.8571428571428571
v -0.5 0 0.8571428571428571
v -0.423076923076923 0 0.8571428571428571
v 0.46153846153846145 0 0.9523809523809523
v 0.5 0 0.8571428571428571
v 0.5 0.75 0.8571428571428571
v -0.423076923076923 0.75 -0.8571428571428571
v 0.423076923076923 0.75 -0.8571428571428571
v 0.5 0.75 -0.8571428571428571
v 0.5 0 -0.8571428571428571
v 0.423076923076923 0 -0.8571428571428571
v -0.423076923076923 0 -0.8571428571428571
v -0.5 0 -0.8571428571428571
v -0.5 0.75 -0.8571428571428571
v 0.5 0.6818181818181818 -0.8571428571428571
v 0.5 0.6818181818181818 0.8571428571428571
v 0.46153846153846145 0.6818181818181818 0.9523809523809523
v 0.423076923076923 0.6818181818181818 1
v -0.423076923076923 0.6818181818181818 1
v -0.46153846153846145 0.6818181818181818 0.9523809523809523
v -0.5 0.6818181818181818 0.8571428571428571
v -0.5 0.6818181818181818 -0.8571428571428571
v -0.46153846153846145 0.6818181818181818 -0.9523809523809523
v -0.423076923076923 0.6818181818181818 -1
v 0.423076923076923 0.6818181818181818 -1
v 0.46153846153846145 0.6818181818181818 -0.9523809523809523
v 0.5 0.6818181818181818 0.8095238095238095
v 0.5 0.75 0.8095238095238095
v 0.423076923076923 0.75 0.8095238095238095
v -0.423076923076923 0.75 0.8095238095238095
v -0.5 0.75 0.8095238095238095
v -0.5 0.6818181818181818 0.8095238095238095
v -0.423076923076923 0.6136363636363635 0.8095238095238095
v -0.423076923076923 0.6136363636363635 0.8095238095238095
v 0.423076923076923 0.6136363636363635 0.8095238095238095
v 0.423076923076923 0.6136363636363635 0.8095238095238095
v -0.423076923076923 0.75 -0.8095238095238095
v 0.423076923076923 0.75 -0.8095238095238095
v 0.5 0.75 -0.8095238095238095
v 0.5 0.6818181818181818 -0.8095238095238095
v 0.423076923076923 0.6136363636363635 -0.8095238095238095
v 0.423076923076923 0.6136363636363635 -0.8095238095238095
v -0.423076923076923 0.6136363636363635 -0.8095238095238095
v -0.423076923076923 0.6136363636363635 -0.8095238095238095
v -0.5 0.6818181818181818 -0.8095238095238095
v -0.5 0.75 -0.8095238095238095
v 0.38461538461538464 0.75 -0.8095238095238095
v 0.38461538461538464 0.75 0.8095238095238095
v 0.38461538461538464 0.75 0.8571428571428571
v 0.38461538461538464 0.75 1
v 0.38461538461538464 0.6818181818181818 1
v 0.38461538461538464 0.6136363636363635 0.9523809523809523
v 0.38461538461538464 0.6136363636363635 0.8571428571428571
v 0.38461538461538464 0.6818181818181818 0.8095238095238095
v 0.38461538461538464 0.6818181818181818 -0.8095238095238095
v 0.38461538461538464 0.6136363636363635 -0.8571428571428571
v 0.38461538461538464 0.6136363636363635 -0.9047619047619048
v 0.38461538461538464 0.6818181818181818 -1
v 0.38461538461538464 0.75 -1
v 0.38461538461538464 0.75 -0.8571428571428571
v -0.38461538461538464 0.75 0.8095238095238095
v -0.38461538461538464 0.75 -0.8095238095238095
v -0.38461538461538464 0.75 -0.8571428571428571
v -0.38461538461538464 0.75 -1
v -0.38461538461538464 0.6818181818181818 -1
v -0.38461538461538464 0.6136363636363635 -0.9047619047619048
v -0.38461538461538464 0.6136363636363635 -0.8571428571428571
v -0.38461538461538464 0.6818181818181818 -0.8095238095238095
v -0.38461538461538464 0.6818181818181818 0.8095238095238095
v -0.38461538461538464 0.6136363636363635 0.8571428571428571
v -0.38461538461538464 0.6136363636363635 0.9523809523809523
v -0.38461538461538464 0.6818181818181818 1
v -0.38461538461538464 0.75 1
v -0.38461538461538464 0.75 0.8571428571428571
vt 0.25 0.984375
vt 0.515625 0.984375
vt 0.515625 1
vt 0.25 1
vt 0.515625 0.8203125
vt 0.25 0.8203125
vt 0.25 0.8046875
vt 0.515625 0.8046875
vt 0.4140625 0.7890625
vt 0.2578125 0.7890625
vt 0.2578125 0.5234375
vt 0.4140625 0.5234375
vt 0.5859375 0.6015625
vt 0.4296875 0.6015625
vt 0.4296875 0.5859375
vt 0.5859375 0.5859375
vt 0.265625 0.8828125
vt 0.421875 0.8828125
vt 0.421875 0.8984375
vt 0.265625 0.8984375
vt 0.015625 0.703125
vt 0.015625 0.96875
vt 0 0.96875
vt 0 0.703125
vt 0.21366953125 0.8203125
vt 0.21366953125 0.8046875
vt 0.22471796875 0.8046875
vt 0.22471796875 0.8203125
vt 0 0.734375
vt 0 1
vt 0 1
vt 0 0.734375
vt 0.54090703125 0.8203125
vt 0.54090703125 0.8046875
vt 0.55195546875 0.8046875
vt 0.55195546875 0.8203125
vt 0.203125 0.703125
vt 0.203125 0.96875
vt 0.1875 0.96875
vt 0.1875 0.703125
vt 0.21366953125 1
vt 0.21366953125 0.984375
vt 0.22471796875 0.984375
vt 0.22471796875 1
vt 0 0.734375
vt 0 1
vt 0 1
vt 0 0.734375
vt 0.54090703125 1
vt 0.54090703125 0.984375
vt 0.55195546875 0.984375
vt 0.55195546875 1
vt 0.1796875 0.6953125
vt 0.0234375 0.6953125
vt 0.0234375 0.671875
vt 0.1796875 0.671875
vt 0.015625 0.671875
vt 0.015625 0.6953125
vt 0 0.6953125
vt 0.0078125 0.6796875
vt 0.5234375 0.8203125
vt 0.5234375 0.8046875
vt 0.54090703125 0.8046875
vt 0.54090703125 0.8203125
vt 0.1953125 0.65625
vt 0.1875 0.640625
vt 0.203125 0.640625
vt 0.203125 0.6640625
vt 0.4140625 0.9296875
vt 0.2578125 0.9296875
vt 0.2578125 0.90625
vt 0.4140625 0.90625
vt 0.2265625 0.6171875
vt 0.2109375 0.640625
vt 0.2109375 0.6171875
vt 0.21875 0.6328125
vt 0.22471796875 1
vt 0.22471796875 0.984375
vt 0.2421875 0.984375
vt 0.2421875 1
vt 0.1953125 0.6796875
vt 0.203125 0.6953125
vt 0.1875 0.6953125
vt 0.1875 0.671875
vt 0.1796875 1
vt 0.0234375 1
vt 0.0234375 0.9765625
vt 0.1796875 0.9765625
vt 0.1875 1
vt 0.1875 0.9765625
vt 0.203125 0.9765625
vt 0.1953125 0.9921875
vt 0.5234375 1
vt 0.5234375 0.984375
vt 0.54090703125 0.984375
vt 0.54090703125 1
vt 0.2421875 0.625
vt 0.25 0.640625
vt 0.234375 0.640625
vt 0.234375 0.6171875
vt 0.4140625 0.84375
vt 0.2578125 0.84375
vt 0.2578125 0.8359375
vt 0.4140625 0.8359375
vt 0.015625 0.609375
vt 0.015625 0.6328125
vt 0 0.6328125
vt 0.0078125 0.6171875
vt 0.22471796875 0.8203125
vt 0.22471796875 0.8046875
vt 0.2421875 0.8046875
vt 0.2421875 0.8203125
vt 0.0078125 0.9921875
vt 0 0.9765625
vt 0.015625 0.9765625
vt 0.015625 1
vt 0.421875 0.61182578125
vt 0.6875 0.61182578125
vt 0.6875 0.63392265625
vt 0.421875 0.63392265625
vt 0.2421875 0.828125
vt 0.2421875 0.984375
vt 0.22471796875 0.984375
vt 0.22471796875 0.828125
vt 0.40625 0.359375
vt 0.40625 0.515625
vt 0.3984375 0.515625
vt 0.3984375 0.359375
vt 0.5859375 0.5859375
vt 0.4296875 0.5859375
vt 0.4296875 0.5703125
vt 0.5859375 0.5703125
vt 0.5234375 0.3984375
vt 0.5234375 0.5546875
vt 0.515625 0.5546875
vt 0.515625 0.3984375
vt 0.54090703125 0.6484375
vt 0.54090703125 0.8046875
vt 0.5234375 0.8046875
vt 0.5234375 0.6484375
vt 0.265625 0.50892265625
vt 0 0.50892265625
vt 0 0.48682578125
vt 0.265625 0.48682578125
vt 0.2421875 0.6484375
vt 0.2421875 0.8046875
vt 0.22471796875 0.8046875
vt 0.22471796875 0.6484375
vt 0.1796875 0.3203125
vt 0.1796875 0.4765625
vt 0.171875 0.4765625
vt 0.171875 0.3203125
vt 0 0.4477640625
vt 0.15625 0.4477640625
vt 0.15625 0.4698609375
vt 0 0.4698609375
vt 0.1953125 0.3203125
vt 0.1953125 0.4765625
vt 0.1875 0.4765625
vt 0.1875 0.3203125
vt 0.54090703125 0.828125
vt 0.54090703125 0.984375
vt 0.5234375 0.984375
vt 0.5234375 0.828125
vt 0.2421875 0.984375
vt 0.25 0.984375
vt 0.25 1
vt 0.2421875 1
vt 0.203125 0.6953125
vt 0.203125 0.703125
vt 0.1875 0.703125
vt 0.1875 0.6953125
vt 0.015625 0.6953125
vt 0.015625 0.703125
vt 0 0.703125
vt 0 0.6953125
vt 0.5234375 0.8203125
vt 0.515625 0.8203125
vt 0.515625 0.8046875
vt 0.5234375 0.8046875
vt 0.2734375 0.50892265625
vt 0.265625 0.50892265625
vt 0.265625 0.48682578125
vt 0.2734375 0.3984375
vt 0.0234375 0.625
vt 0.0390625 0.6328125
vt 0.0390625 0.6328125
vt 0.0390625 0.625
vt 0.26107038427271445 0.9509946295424396
vt 0.41732038427271445 0.9509946295424396
vt 0.41732038427271445 0.9620430670424396
vt 0.26107038427271445 0.9620430670424396
vt 0.046875 0.625
vt 0.046875 0.6328125
vt 0.046875 0.6328125
vt 0.0625 0.625
vt 0.370908203125 0.3515625
vt 0.386904296875 0.49236328125000006
vt 0.371298828125 0.5080078125
vt 0.370908203125 0.50761796875
vt 0.1875 0.9765625
vt 0.1875 0.96875
vt 0.203125 0.96875
vt 0.203125 0.9765625
vt 0.5234375 1
vt 0.515625 1
vt 0.515625 0.984375
vt 0.5234375 0.984375
vt 0.6953125 0.63392265625
vt 0.6875 0.63392265625
vt 0.6875 0.61182578125
vt 0.6953125 0.5234375
vt 0.0859375 0.6328125
vt 0.0703125 0.625
vt 0.0703125 0.625
vt 0.0703125 0.6328125
vt 0.15950788427271442 0.6573555670424396
vt 0.003257884272714423 0.6573555670424396
vt 0.003257884272714423 0.6463071295424396
vt 0.15950788427271442 0.6463071295424396
vt 0.109375 0.6328125
vt 0.109375 0.625
vt 0.109375 0.625
vt 0.09375 0.6328125
vt 0.488095703125 0.390625
vt 0.504091796875 0.5314257812500001
vt 0.488486328125 0.5470703125
vt 0.488095703125 0.54668046875
vt 0.2421875 0.8046875
vt 0.25 0.8046875
vt 0.25 0.8203125
vt 0.2421875 0.8203125
vt 0 0.9765625
vt 0 0.96875
vt 0.015625 0.96875
vt 0.015625 0.9765625
vt 0.4296875 0.875
vt 0.421875 0.875
vt 0.421875 0.8671875
vt 0.4296875 0.8671875
vt 0.1875 0.6953125
vt 0.1796875 0.6953125
vt 0.1796875 0.671875
vt 0.1875 0.671875
vt 0.59375 0.6015625
vt 0.5859375 0.6015625
vt 0.5859375 0.5859375
vt 0.59375 0.5859375
vt 0.59375 0.5859375
vt 0.5859375 0.5859375
vt 0.5859375 0.5703125
vt 0.59375 0.4296875
vt 0.4728661484216458 0.3984375
vt 0.4728661484216458 0.5392796875
vt 0.4494286484216458 0.5392796875
vt 0.4494286484216458 0.3984375
vt 0.44942864842164576 0.39843761382165066
vt 0.4494286484216458 0.5392796875
vt 0.4416038166461344 0.5470798538343258
vt 0.4411963515783542 0.5388457478999301
vt 0.8203125 0.9609375
vt 0.8203125 0.96875
vt 0.5546875 0.96875
vt 0.5546875 0.9609375
vt 0.16907638536384925 0.6518322704120041
vt 0.15950788427271442 0.6573555670424396
vt 0.15950788427271442 0.6463069630129263
vt 0.22330461572728558 0.546875
vt 0.3556739406254116 0.3515625
vt 0.3556739406254116 0.4924046875
vt 0.3478614406254116 0.4924046875
vt 0.3322364406254116 0.3515625
vt 0.3322365076921042 0.35156310453246054
vt 0.3478614406254116 0.4924046875
vt 0.3322148784858765 0.5080081200118904
vt 0.3318260593745884 0.5076180335124862
vt 0.2578125 0.8828125
vt 0.265625 0.8828125
vt 0.265625 0.8984375
vt 0.2578125 0.8984375
vt 0.1875 1
vt 0.1796875 1
vt 0.1796875 0.9765625
vt 0.1875 0.9765625
vt 0.4296875 0.859375
vt 0.421875 0.859375
vt 0.421875 0.8515625
vt 0.4296875 0.8515625
vt 0.2578125 0.8515625
vt 0.265625 0.8515625
vt 0.265625 0.859375
vt 0.2578125 0.859375
vt 0.015625 0.9765625
vt 0.0234375 0.9765625
vt 0.0234375 1
vt 0.015625 1
vt 0.4296875 0.8984375
vt 0.421875 0.8984375
vt 0.421875 0.8828125
vt 0.4296875 0.8828125
vt 0.1640625 0.4698609375
vt 0.15625 0.4698609375
vt 0.15625 0.4477640625
vt 0.1640625 0.359375
vt 0.3166161484216458 0.359375
vt 0.3009911484216458 0.5002171875
vt 0.2931786484216458 0.5002171875
vt 0.2931786484216458 0.359375
vt 0.29317864842164576 0.35937511382165066
vt 0.2931786484216458 0.5002171875
vt 0.2853538166461344 0.5080173538343258
vt 0.2849463515783542 0.4997832478999301
vt 0.8203125 0.9453125
vt 0.8203125 0.953125
vt 0.5546875 0.953125
vt 0.5546875 0.9453125
vt 0.4268888853638493 0.9565197704120041
vt 0.41732038427271445 0.9620430670424396
vt 0.41732038427271445 0.9509944630129263
vt 0.48111711572728555 0.8515625
vt 0.4453125 0.6484375
vt 0.4453125 0.7890625
vt 0.421875 0.7890625
vt 0.421875 0.6484375
vt 0.421875 0.4296875
vt 0.4296875 0.5703125
vt 0.4296875 0.5859375
vt 0.421875 0.5859375
vt 0.421875 0.5859375
vt 0.4296875 0.5859375
vt 0.4296875 0.6015625
vt 0.421875 0.6015625
vt 0.015625 0.671875
vt 0.0234375 0.671875
vt 0.0234375 0.6953125
vt 0.015625 0.6953125
vt 0.2578125 0.8671875
vt 0.265625 0.8671875
vt 0.265625 0.875
vt 0.2578125 0.875
vt 0.421875 0.875
vt 0.265625 0.875
vt 0.265625 0.8671875
vt 0.421875 0.8671875
vt 0.421875 0.859375
vt 0.265625 0.859375
vt 0.265625 0.8515625
vt 0.421875 0.8515625
vt 0.015625 0.703125
vt 0.1875 0.703125
vt 0.1875 0.96875
vt 0.015625 0.96875
vn 1 0 0
vn -1 0 0
vn 0 -1 0
vn 0 0 1
vn 0 0 -1
vn 0 1 0
vn -0.7779411802037222 0 -0.6283371070876206
vn 0 0 0
vn -0.7779411802037222 0 0.6283371070876206
vn 0 1 0
vn 0.7779411802037222 0 0.6283371070876206
vn 0 0 0
vn 0.7779411802037222 0 -0.6283371070876206
vn 0 1 0
vn 0 1 0
vn -0.9272418371079394 0 0.37446304960128407
vn 0 -1 0
vn 0 -1 0
vn 0 1 0
vn 0.9272418371079394 0 0.37446304960128407
vn 0 1 0
vn 0 1 0
vn 0 1 0
vn 0.9272418371079394 0 -0.37446304960128407
vn 0 -1 0
vn 0 -1 0
vn 0 -1 0
vn -0.9272418371079394 0 -0.37446304960128407
vn 0 1 0
vn 0.6633075143158518 -0.7483469392281406 0
vn 0.9272418371079395 0 0.37446304960128407
vn 0.7779411802037222 0 0.6283371070876206
vn 0 -0.5725886373929063 0.819842821721661
vn -0.7779411802037222 0 0.6283371070876206
vn -0.9272418371079395 0 0.37446304960128407
vn -0.6633075143158518 -0.7483469392281406 0
vn -0.9272418371079395 0 -0.37446304960128407
vn -0.7779411802037222 0 -0.6283371070876206
vn 0 -0.8131086861592093 -0.5821119003185252
vn 0.7779411802037222 0 -0.6283371070876206
vn 0.9272418371079395 0 -0.37446304960128407
vn 1 0 0
vn 0 1 0
vn 0 1 0
vn -1 0 0
vn -0.6633075143158518 -0.7483469392281404 0
vn 0 0 0
vn 0 -0.5725886373929053 -0.8198428217216613
vn 0 0 0
vn 0.06163691503437072 -0.0695390836285209 -0.9956732428629141
vn 0 1 0
vn 1 0 0
vn 0.6633075143158518 -0.7483469392281404 0
vn 0 0 0
vn 0 -0.5725886373929053 0.8198428217216613
vn 0 0 0
vn -0.06163691503437072 -0.0695390836285209 0.9956732428629141
vn -1 0 0
vn 0 1 0
vn 0 1 0
vn 0 1 0
vn 0 0 1
vn 0 -0.5725886373929063 0.819842821721661
vn -0.9980414988808316 -0.06255530762216024 0
vn -0.9625932537608456 -0.15514323503837796 -0.2221369047140416
vn -0.8709784677429296 -0.4913211869319076 0
vn -0.7123659006519835 -0.40184743113701527 0.5753724582189093
vn -0.9980414988808316 -0.06255530762216027 0
vn -0.9976021351965674 -0.05627499224185753 -0.04028777853678437
vn 0 0 -1
vn 0 1 0
vn 0 1 0
vn 0 1 0
vn 0 1 0
vn 0 0 -1
vn 0 -0.8131086861592093 -0.5821119003185252
vn 0.9980414988808316 -0.06255530762216024 0
vn 0.9940620844002512 -0.062305885631924456 0.08921069988207375
vn 0.8709784677429296 -0.4913211869319076 0
vn 0.7123659006519835 -0.40184743113701527 -0.5753724582189093
vn 0.9980414988808316 -0.06255530762216027 0
vn 0.9951821497041475 -0.05613848023972103 0.08038009670687321
vn 0 0 1
vn 0 1 0
vn 0 1 0
vn 0 1 0
vn 0 1 0
vn 0 1 0
usemtl m_d6f7d6c2-966d-e4ab-38a0-e9c6a1d74a26
f 45/1/1 58/2/1 57/3/1 46/4/1
f 49/5/2 64/6/2 63/7/2 50/8/2
f 72/9/3 87/10/3 86/11/3 73/12/3
f 68/13/4 91/14/4 90/15/4 69/16/4
f 76/17/5 83/18/5 82/19/5 77/20/5
f 48/21/6 55/22/6 64/23/6 49/24/6
f 10/25/7 42/26/7 41/27/7 6/28/7
f 51/29/8 61/30/8 62/31/8 52/32/8
f 5/33/9 38/34/9 37/35/9 9/36/9
f 46/37/10 57/38/10 56/39/10 47/40/10
f 14/41/11 36/42/11 35/43/11 1/44/11
f 53/45/12 59/46/12 60/47/12 54/48/12
f 2/49/13 44/50/13 43/51/13 13/52/13
f 67/53/14 92/54/14 91/55/14 68/56/14
f 9/57/15 18/58/15 19/59/15 5/60/15
f 19/61/16 39/62/16 38/63/16 5/64/16
f 7/65/17 20/66/17 21/67/17 12/68/17
f 70/69/18 89/70/18 88/71/18 71/72/18
f 23/73/19 15/74/19 22/75/19 3/76/19
f 1/77/20 35/78/20 34/79/20 24/80/20
f 1/81/21 24/82/21 17/83/21 14/84/21
f 77/85/22 82/86/22 81/87/22 78/88/22
f 13/89/23 26/90/23 27/91/23 2/92/23
f 27/93/24 33/94/24 44/95/24 2/96/24
f 4/97/25 28/98/25 29/99/25 16/100/25
f 74/101/26 85/102/26 84/103/26 75/104/26
f 11/105/27 30/106/27 31/107/27 8/108/27
f 6/109/28 41/110/28 40/111/28 32/112/28
f 6/113/29 32/114/29 25/115/29 10/116/29
f 54/117/30 59/118/30 58/119/30 45/120/30
f 23/121/31 34/122/31 35/123/31 3/124/31
f 3/125/32 35/126/32 36/127/32 15/128/32
f 69/129/33 90/130/33 89/131/33 70/132/33
f 12/133/34 37/134/34 38/135/34 7/136/34
f 7/137/35 38/138/35 39/139/35 20/140/35
f 50/141/36 63/142/36 62/143/36 51/144/36
f 31/145/37 40/146/37 41/147/37 8/148/37
f 8/149/38 41/150/38 42/151/38 11/152/38
f 75/153/39 84/154/39 83/155/39 76/156/39
f 16/157/40 43/158/40 44/159/40 4/160/40
f 4/161/41 44/162/41 33/163/41 28/164/41
f 34/165/42 45/166/42 46/167/42 24/168/42
f 24/169/43 46/170/43 47/171/43 17/172/43
f 18/173/44 48/174/44 49/175/44 19/176/44
f 19/177/45 49/178/45 50/179/45 39/180/45
f 39/181/46 50/182/46 51/183/46 20/184/46
f 20/185/47 51/186/47 52/187/47 21/188/47
f 71/189/48 88/190/48 87/191/48 72/192/48
f 22/193/49 53/194/49 54/195/49 23/196/49
f 23/197/50 54/198/50 45/199/50 34/200/50
f 26/201/51 56/202/51 57/203/51 27/204/51
f 27/205/52 57/206/52 58/207/52 33/208/52
f 33/209/53 58/210/53 59/211/53 28/212/53
f 28/213/54 59/214/54 60/215/54 29/216/54
f 73/217/55 86/218/55 85/219/55 74/220/55
f 30/221/56 61/222/56 62/223/56 31/224/56
f 31/225/57 62/226/57 63/227/57 40/228/57
f 40/229/58 63/230/58 64/231/58 32/232/58
f 32/233/59 64/234/59 55/235/59 25/236/59
f 47/237/60 66/238/60 67/239/60 17/240/60
f 17/241/61 67/242/61 68/243/61 14/244/61
f 14/245/62 68/246/62 69/247/62 36/248/62
f 36/249/63 69/250/63 70/251/63 15/252/63
f 15/253/64 70/254/64 71/255/64 22/256/64
f 22/257/65 71/258/65 72/259/65 53/260/65
f 53/261/66 72/262/66 73/263/66 60/264/66
f 60/265/67 73/266/67 74/267/67 29/268/67
f 29/269/68 74/270/68 75/271/68 16/272/68
f 16/273/69 75/274/69 76/275/69 43/276/69
f 43/277/70 76/278/70 77/279/70 13/280/70
f 13/281/71 77/282/71 78/283/71 26/284/71
f 26/285/72 78/286/72 65/287/72 56/288/72
f 55/289/73 80/290/73 81/291/73 25/292/73
f 25/293/74 81/294/74 82/295/74 10/296/74
f 10/297/75 82/298/75 83/299/75 42/300/75
f 42/301/76 83/302/76 84/303/76 11/304/76
f 11/305/77 84/306/77 85/307/77 30/308/77
f 30/309/78 85/310/78 86/311/78 61/312/78
f 61/313/79 86/314/79 87/315/79 52/316/79
f 52/317/80 87/318/80 88/319/80 21/320/80
f 21/321/81 88/322/81 89/323/81 12/324/81
f 12/325/82 89/326/82 90/327/82 37/328/82
f 37/329/83 90/330/83 91/331/83 9/332/83
f 9/333/84 91/334/84 92/335/84 18/336/84
f 18/337/85 92/338/85 79/339/85 48/340/85
f 66/341/86 79/342/86 92/343/86 67/344/86
f 78/345/87 81/346/87 80/347/87 65/348/87
f 48/349/88 47/350/88 56/351/88 55/352/88